<!DOCTYPE svg PUBLIC "-//W3C//DTD SVG 1.1//EN" "http://www.w3.org/Graphics/SVG/1.1/DTD/svg11.dtd">
<svg xmlns="http://www.w3.org/2000/svg" version="1.1" width="524" height="444" viewBox="-15, -15, 30, 30" transform="">
  <g fill="Black" visibility="visible" fill-opacity="1" stroke-width="1" stroke-miterlimit="4" stroke-opacity="1" opacity="1" transform="matrix(-0.3971479, 0.9177547, -0.9177547, -0.3971479, 6, 0)">
    <rect x="0" y="0" width="1.51" height="1.51" rx="0" ry="0" visibility="visible" fill="#FFFFFF" stroke="#000000" fill-opacity="1" stroke-width="0.1" stroke-miterlimit="4" stroke-opacity="1" opacity="1" transform="translate(1.575, 0) rotate(0, 0, 0) translate(-0.755, -0.755)" />
    <rect x="0" y="0" width="1.51" height="1.51" rx="0" ry="0" visibility="visible" fill="#FFFFFF" stroke="#000000" fill-opacity="1" stroke-width="0.1" stroke-miterlimit="4" stroke-opacity="1" opacity="1" transform="translate(9.643775E-17, 1.675) rotate(0, 0, 0) translate(-0.755, -0.755)" />
    <rect x="0" y="0" width="1.51" height="1.51" rx="0" ry="0" visibility="visible" fill="#FFFFFF" stroke="#000000" fill-opacity="1" stroke-width="0.1" stroke-miterlimit="4" stroke-opacity="1" opacity="1" transform="translate(-1.575, 2.051216E-16) rotate(0, 0, 0) translate(-0.755, -0.755)" />
    <rect x="0" y="0" width="1.51" height="1.51" rx="0" ry="0" visibility="visible" fill="#FFFFFF" stroke="#000000" fill-opacity="1" stroke-width="0.1" stroke-miterlimit="4" stroke-opacity="1" opacity="1" transform="translate(-2.893133E-16, -1.675) rotate(0, 0, 0) translate(-0.755, -0.755)" />
    <ellipse rx="0.5" ry="0.5" visibility="visible" fill="none" stroke="#000000" fill-opacity="0" stroke-width="0.1" stroke-miterlimit="4" stroke-opacity="1" opacity="1" transform="translate(0, 0) rotate(0, 0, 0)" />
    <polygon points="1.575 -4.08 0.7875 -2.629407 -0.7875 -2.629407 -1.575 -4.08 -0.7875 -5.530592 0.7875 -5.530592 " visibility="visible" fill="#008CCA" stroke="#000000" fill-rule="evenodd" fill-opacity="1" stroke-width="0.1" stroke-miterlimit="4" stroke-opacity="1" opacity="1" transform="translate(0, 0) rotate(0, 0, 0)" />
    <polyline points="1.575 4.1 0.7875 5.550592 -0.7875 5.550592 -1.575 4.1 -0.7875 2.649407 0.7875 2.649407 " visibility="visible" fill="#FFFFFF" stroke="#000000" fill-opacity="1" stroke-width="0.1" stroke-miterlimit="4" stroke-opacity="1" opacity="1" transform="translate(0, 0) rotate(0, 0, 0)" />
    <text font-family="Microsoft JhengHei" font-size="1" fill="#FFFFFF" visibility="visible" stroke="#000000" fill-opacity="1" stroke-width="0.01" stroke-miterlimit="4" stroke-opacity="1" opacity="1" transform="translate(1.24, -1.5) rotate(0, 0, 0) scale(1, 1)">text</text>
  </g>
  <g fill="Black" visibility="visible" fill-opacity="1" stroke-width="1" stroke-miterlimit="4" stroke-opacity="1" opacity="1" transform="matrix(-0.9177547, -0.3971479, 0.3971479, -0.9177547, 3.673819E-16, 6)">
    <rect x="0" y="0" width="1.51" height="1.51" rx="0" ry="0" visibility="visible" fill="#FFFFFF" stroke="#000000" fill-opacity="1" stroke-width="0.1" stroke-miterlimit="4" stroke-opacity="1" opacity="1" transform="translate(1.575, 0) rotate(0, 0, 0) translate(-0.755, -0.755)" />
    <rect x="0" y="0" width="1.51" height="1.51" rx="0" ry="0" visibility="visible" fill="#FFFFFF" stroke="#000000" fill-opacity="1" stroke-width="0.1" stroke-miterlimit="4" stroke-opacity="1" opacity="1" transform="translate(9.643775E-17, 1.675) rotate(0, 0, 0) translate(-0.755, -0.755)" />
    <rect x="0" y="0" width="1.51" height="1.51" rx="0" ry="0" visibility="visible" fill="#FFFFFF" stroke="#000000" fill-opacity="1" stroke-width="0.1" stroke-miterlimit="4" stroke-opacity="1" opacity="1" transform="translate(-1.575, 2.051216E-16) rotate(0, 0, 0) translate(-0.755, -0.755)" />
    <rect x="0" y="0" width="1.51" height="1.51" rx="0" ry="0" visibility="visible" fill="#FFFFFF" stroke="#000000" fill-opacity="1" stroke-width="0.1" stroke-miterlimit="4" stroke-opacity="1" opacity="1" transform="translate(-2.893133E-16, -1.675) rotate(0, 0, 0) translate(-0.755, -0.755)" />
    <ellipse rx="0.5" ry="0.5" visibility="visible" fill="none" stroke="#000000" fill-opacity="0" stroke-width="0.1" stroke-miterlimit="4" stroke-opacity="1" opacity="1" transform="translate(0, 0) rotate(0, 0, 0)" />
    <polygon points="1.575 -4.08 0.7875 -2.629407 -0.7875 -2.629407 -1.575 -4.08 -0.7875 -5.530592 0.7875 -5.530592 " visibility="visible" fill="#008CCA" stroke="#000000" fill-rule="evenodd" fill-opacity="1" stroke-width="0.1" stroke-miterlimit="4" stroke-opacity="1" opacity="1" transform="translate(0, 0) rotate(0, 0, 0)" />
    <polyline points="1.575 4.1 0.7875 5.550592 -0.7875 5.550592 -1.575 4.1 -0.7875 2.649407 0.7875 2.649407 " visibility="visible" fill="#FFFFFF" stroke="#000000" fill-opacity="1" stroke-width="0.1" stroke-miterlimit="4" stroke-opacity="1" opacity="1" transform="translate(0, 0) rotate(0, 0, 0)" />
    <text font-family="Microsoft JhengHei" font-size="1" fill="#FFFFFF" visibility="visible" stroke="#000000" fill-opacity="1" stroke-width="0.01" stroke-miterlimit="4" stroke-opacity="1" opacity="1" transform="translate(1.24, -1.5) rotate(0, 0, 0) scale(1, 1)">text</text>
  </g>
  <g fill="Black" visibility="visible" fill-opacity="1" stroke-width="1" stroke-miterlimit="4" stroke-opacity="1" opacity="1" transform="matrix(0.3971479, -0.9177547, 0.9177547, 0.3971479, -6, 7.347638E-16)">
    <rect x="0" y="0" width="1.51" height="1.51" rx="0" ry="0" visibility="visible" fill="#FFFFFF" stroke="#000000" fill-opacity="1" stroke-width="0.1" stroke-miterlimit="4" stroke-opacity="1" opacity="1" transform="translate(1.575, 0) rotate(0, 0, 0) translate(-0.755, -0.755)" />
    <rect x="0" y="0" width="1.51" height="1.51" rx="0" ry="0" visibility="visible" fill="#FFFFFF" stroke="#000000" fill-opacity="1" stroke-width="0.1" stroke-miterlimit="4" stroke-opacity="1" opacity="1" transform="translate(9.643775E-17, 1.675) rotate(0, 0, 0) translate(-0.755, -0.755)" />
    <rect x="0" y="0" width="1.51" height="1.51" rx="0" ry="0" visibility="visible" fill="#FFFFFF" stroke="#000000" fill-opacity="1" stroke-width="0.1" stroke-miterlimit="4" stroke-opacity="1" opacity="1" transform="translate(-1.575, 2.051216E-16) rotate(0, 0, 0) translate(-0.755, -0.755)" />
    <rect x="0" y="0" width="1.51" height="1.51" rx="0" ry="0" visibility="visible" fill="#FFFFFF" stroke="#000000" fill-opacity="1" stroke-width="0.1" stroke-miterlimit="4" stroke-opacity="1" opacity="1" transform="translate(-2.893133E-16, -1.675) rotate(0, 0, 0) translate(-0.755, -0.755)" />
    <ellipse rx="0.5" ry="0.5" visibility="visible" fill="none" stroke="#000000" fill-opacity="0" stroke-width="0.1" stroke-miterlimit="4" stroke-opacity="1" opacity="1" transform="translate(0, 0) rotate(0, 0, 0)" />
    <polygon points="1.575 -4.08 0.7875 -2.629407 -0.7875 -2.629407 -1.575 -4.08 -0.7875 -5.530592 0.7875 -5.530592 " visibility="visible" fill="#008CCA" stroke="#000000" fill-rule="evenodd" fill-opacity="1" stroke-width="0.1" stroke-miterlimit="4" stroke-opacity="1" opacity="1" transform="translate(0, 0) rotate(0, 0, 0)" />
    <polyline points="1.575 4.1 0.7875 5.550592 -0.7875 5.550592 -1.575 4.1 -0.7875 2.649407 0.7875 2.649407 " visibility="visible" fill="#FFFFFF" stroke="#000000" fill-opacity="1" stroke-width="0.1" stroke-miterlimit="4" stroke-opacity="1" opacity="1" transform="translate(0, 0) rotate(0, 0, 0)" />
    <text font-family="Microsoft JhengHei" font-size="1" fill="#FFFFFF" visibility="visible" stroke="#000000" fill-opacity="1" stroke-width="0.01" stroke-miterlimit="4" stroke-opacity="1" opacity="1" transform="translate(1.24, -1.5) rotate(0, 0, 0) scale(1, 1)">text</text>
  </g>
  <g fill="Black" visibility="visible" fill-opacity="1" stroke-width="1" stroke-miterlimit="4" stroke-opacity="1" opacity="1" transform="matrix(0.9177547, 0.3971479, -0.3971479, 0.9177547, -1.102146E-15, -6)">
    <rect x="0" y="0" width="1.51" height="1.51" rx="0" ry="0" visibility="visible" fill="#FFFFFF" stroke="#000000" fill-opacity="1" stroke-width="0.1" stroke-miterlimit="4" stroke-opacity="1" opacity="1" transform="translate(1.575, 0) rotate(0, 0, 0) translate(-0.755, -0.755)" />
    <rect x="0" y="0" width="1.51" height="1.51" rx="0" ry="0" visibility="visible" fill="#FFFFFF" stroke="#000000" fill-opacity="1" stroke-width="0.1" stroke-miterlimit="4" stroke-opacity="1" opacity="1" transform="translate(9.643775E-17, 1.675) rotate(0, 0, 0) translate(-0.755, -0.755)" />
    <rect x="0" y="0" width="1.51" height="1.51" rx="0" ry="0" visibility="visible" fill="#FFFFFF" stroke="#000000" fill-opacity="1" stroke-width="0.1" stroke-miterlimit="4" stroke-opacity="1" opacity="1" transform="translate(-1.575, 2.051216E-16) rotate(0, 0, 0) translate(-0.755, -0.755)" />
    <rect x="0" y="0" width="1.51" height="1.51" rx="0" ry="0" visibility="visible" fill="#FFFFFF" stroke="#000000" fill-opacity="1" stroke-width="0.1" stroke-miterlimit="4" stroke-opacity="1" opacity="1" transform="translate(-2.893133E-16, -1.675) rotate(0, 0, 0) translate(-0.755, -0.755)" />
    <ellipse rx="0.5" ry="0.5" visibility="visible" fill="none" stroke="#000000" fill-opacity="0" stroke-width="0.1" stroke-miterlimit="4" stroke-opacity="1" opacity="1" transform="translate(0, 0) rotate(0, 0, 0)" />
    <polygon points="1.575 -4.08 0.7875 -2.629407 -0.7875 -2.629407 -1.575 -4.08 -0.7875 -5.530592 0.7875 -5.530592 " visibility="visible" fill="#008CCA" stroke="#000000" fill-rule="evenodd" fill-opacity="1" stroke-width="0.1" stroke-miterlimit="4" stroke-opacity="1" opacity="1" transform="translate(0, 0) rotate(0, 0, 0)" />
    <polyline points="1.575 4.1 0.7875 5.550592 -0.7875 5.550592 -1.575 4.1 -0.7875 2.649407 0.7875 2.649407 " visibility="visible" fill="#FFFFFF" stroke="#000000" fill-opacity="1" stroke-width="0.1" stroke-miterlimit="4" stroke-opacity="1" opacity="1" transform="translate(0, 0) rotate(0, 0, 0)" />
    <text font-family="Microsoft JhengHei" font-size="1" fill="#FFFFFF" visibility="visible" stroke="#000000" fill-opacity="1" stroke-width="0.01" stroke-miterlimit="4" stroke-opacity="1" opacity="1" transform="translate(1.24, -1.5) rotate(0, 0, 0) scale(1, 1)">text</text>
  </g>
</svg>