<!DOCTYPE svg PUBLIC "-//W3C//DTD SVG 1.1//EN" "http://www.w3.org/Graphics/SVG/1.1/DTD/svg11.dtd">
<svg xmlns="http://www.w3.org/2000/svg" version="1.1" width="441" height="389" viewBox="-15, -15, 30, 30" transform="">
  <g fill="Black" visibility="visible" fill-opacity="1" stroke-width="1" stroke-miterlimit="4" stroke-opacity="1" opacity="1" transform="matrix(0.5497715, 0.835315, -0.835315, 0.5497715, 8.078633, 0)">
    <rect width="2" height="2" rx="0" ry="0" visibility="visible" fill="#9C9C9C" stroke="Black" fill-opacity="1" stroke-width="0.1" stroke-miterlimit="4" stroke-opacity="1" opacity="1" transform="translate(-0.1517008, 0) rotate(0, 0, 0) translate(-1, -1)" />
    <rect width="2" height="2" rx="0" ry="0" visibility="visible" fill="#9C9C9C" stroke="Black" fill-opacity="1" stroke-width="0.1" stroke-miterlimit="4" stroke-opacity="1" opacity="1" transform="translate(-0.4358283, 0) rotate(0, 0, 0) translate(-1, -1)" />
    <rect width="2" height="2" rx="0" ry="0" visibility="visible" fill="#9C9C9C" stroke="Black" fill-opacity="1" stroke-width="0.1" stroke-miterlimit="4" stroke-opacity="1" opacity="1" transform="translate(0.5875292, 0) rotate(0, 0, 0) translate(-1, -1)" />
    <ellipse rx="1" ry="1" visibility="visible" fill="none" stroke="Black" fill-opacity="0" stroke-width="0.1" stroke-miterlimit="4" stroke-opacity="1" opacity="1" transform="translate(-0.1517008, 0) rotate(0, 0, 0)" />
    <ellipse rx="1" ry="1" visibility="visible" fill="none" stroke="Black" fill-opacity="0" stroke-width="0.1" stroke-miterlimit="4" stroke-opacity="1" opacity="1" transform="translate(-0.4358283, 0) rotate(0, 0, 0)" />
    <ellipse rx="1" ry="1" visibility="visible" fill="none" stroke="Black" fill-opacity="0" stroke-width="0.1" stroke-miterlimit="4" stroke-opacity="1" opacity="1" transform="translate(0.5875292, 0) rotate(0, 0, 0)" />
  </g>
  <g fill="Black" visibility="visible" fill-opacity="1" stroke-width="1" stroke-miterlimit="4" stroke-opacity="1" opacity="1" transform="matrix(-0.4638233, 0.8859277, -0.8859277, -0.4638233, 10.71382, 0)">
    <rect width="2" height="2" rx="0" ry="0" visibility="visible" fill="#9C9C9C" stroke="Black" fill-opacity="1" stroke-width="0.1" stroke-miterlimit="4" stroke-opacity="1" opacity="1" transform="translate(-0.1517008, 0) rotate(0, 0, 0) translate(-1, -1)" />
    <rect width="2" height="2" rx="0" ry="0" visibility="visible" fill="#9C9C9C" stroke="Black" fill-opacity="1" stroke-width="0.1" stroke-miterlimit="4" stroke-opacity="1" opacity="1" transform="translate(-0.4358283, 0) rotate(0, 0, 0) translate(-1, -1)" />
    <rect width="2" height="2" rx="0" ry="0" visibility="visible" fill="#9C9C9C" stroke="Black" fill-opacity="1" stroke-width="0.1" stroke-miterlimit="4" stroke-opacity="1" opacity="1" transform="translate(0.5875292, 0) rotate(0, 0, 0) translate(-1, -1)" />
    <ellipse rx="1" ry="1" visibility="visible" fill="none" stroke="Black" fill-opacity="0" stroke-width="0.1" stroke-miterlimit="4" stroke-opacity="1" opacity="1" transform="translate(-0.1517008, 0) rotate(0, 0, 0)" />
    <ellipse rx="1" ry="1" visibility="visible" fill="none" stroke="Black" fill-opacity="0" stroke-width="0.1" stroke-miterlimit="4" stroke-opacity="1" opacity="1" transform="translate(-0.4358283, 0) rotate(0, 0, 0)" />
    <ellipse rx="1" ry="1" visibility="visible" fill="none" stroke="Black" fill-opacity="0" stroke-width="0.1" stroke-miterlimit="4" stroke-opacity="1" opacity="1" transform="translate(0.5875292, 0) rotate(0, 0, 0)" />
  </g>
  <g fill="Black" visibility="visible" fill-opacity="1" stroke-width="1" stroke-miterlimit="4" stroke-opacity="1" opacity="1" transform="matrix(-0.3488239, 0.9371883, -0.9371883, -0.3488239, 1.781301, 0)">
    <rect width="2" height="2" rx="0" ry="0" visibility="visible" fill="#9C9C9C" stroke="Black" fill-opacity="1" stroke-width="0.1" stroke-miterlimit="4" stroke-opacity="1" opacity="1" transform="translate(-0.1517008, 0) rotate(0, 0, 0) translate(-1, -1)" />
    <rect width="2" height="2" rx="0" ry="0" visibility="visible" fill="#9C9C9C" stroke="Black" fill-opacity="1" stroke-width="0.1" stroke-miterlimit="4" stroke-opacity="1" opacity="1" transform="translate(-0.4358283, 0) rotate(0, 0, 0) translate(-1, -1)" />
    <rect width="2" height="2" rx="0" ry="0" visibility="visible" fill="#9C9C9C" stroke="Black" fill-opacity="1" stroke-width="0.1" stroke-miterlimit="4" stroke-opacity="1" opacity="1" transform="translate(0.5875292, 0) rotate(0, 0, 0) translate(-1, -1)" />
    <ellipse rx="1" ry="1" visibility="visible" fill="none" stroke="Black" fill-opacity="0" stroke-width="0.1" stroke-miterlimit="4" stroke-opacity="1" opacity="1" transform="translate(-0.1517008, 0) rotate(0, 0, 0)" />
    <ellipse rx="1" ry="1" visibility="visible" fill="none" stroke="Black" fill-opacity="0" stroke-width="0.1" stroke-miterlimit="4" stroke-opacity="1" opacity="1" transform="translate(-0.4358283, 0) rotate(0, 0, 0)" />
    <ellipse rx="1" ry="1" visibility="visible" fill="none" stroke="Black" fill-opacity="0" stroke-width="0.1" stroke-miterlimit="4" stroke-opacity="1" opacity="1" transform="translate(0.5875292, 0) rotate(0, 0, 0)" />
  </g>
  <g fill="Black" visibility="visible" fill-opacity="1" stroke-width="1" stroke-miterlimit="4" stroke-opacity="1" opacity="1" transform="matrix(-0.8219652, 0.5695377, -0.5695377, -0.8219652, -5.296486, 0)">
    <rect width="2" height="2" rx="0" ry="0" visibility="visible" fill="#9C9C9C" stroke="Black" fill-opacity="1" stroke-width="0.1" stroke-miterlimit="4" stroke-opacity="1" opacity="1" transform="translate(-0.1517008, 0) rotate(0, 0, 0) translate(-1, -1)" />
    <rect width="2" height="2" rx="0" ry="0" visibility="visible" fill="#9C9C9C" stroke="Black" fill-opacity="1" stroke-width="0.1" stroke-miterlimit="4" stroke-opacity="1" opacity="1" transform="translate(-0.4358283, 0) rotate(0, 0, 0) translate(-1, -1)" />
    <rect width="2" height="2" rx="0" ry="0" visibility="visible" fill="#9C9C9C" stroke="Black" fill-opacity="1" stroke-width="0.1" stroke-miterlimit="4" stroke-opacity="1" opacity="1" transform="translate(0.5875292, 0) rotate(0, 0, 0) translate(-1, -1)" />
    <ellipse rx="1" ry="1" visibility="visible" fill="none" stroke="Black" fill-opacity="0" stroke-width="0.1" stroke-miterlimit="4" stroke-opacity="1" opacity="1" transform="translate(-0.1517008, 0) rotate(0, 0, 0)" />
    <ellipse rx="1" ry="1" visibility="visible" fill="none" stroke="Black" fill-opacity="0" stroke-width="0.1" stroke-miterlimit="4" stroke-opacity="1" opacity="1" transform="translate(-0.4358283, 0) rotate(0, 0, 0)" />
    <ellipse rx="1" ry="1" visibility="visible" fill="none" stroke="Black" fill-opacity="0" stroke-width="0.1" stroke-miterlimit="4" stroke-opacity="1" opacity="1" transform="translate(0.5875292, 0) rotate(0, 0, 0)" />
  </g>
  <g fill="Black" visibility="visible" fill-opacity="1" stroke-width="1" stroke-miterlimit="4" stroke-opacity="1" opacity="1" transform="matrix(0.2226168, -0.974906, 0.974906, 0.2226168, 4.974535, 0)">
    <rect width="2" height="2" rx="0" ry="0" visibility="visible" fill="#9C9C9C" stroke="Black" fill-opacity="1" stroke-width="0.1" stroke-miterlimit="4" stroke-opacity="1" opacity="1" transform="translate(-0.1517008, 0) rotate(0, 0, 0) translate(-1, -1)" />
    <rect width="2" height="2" rx="0" ry="0" visibility="visible" fill="#9C9C9C" stroke="Black" fill-opacity="1" stroke-width="0.1" stroke-miterlimit="4" stroke-opacity="1" opacity="1" transform="translate(-0.4358283, 0) rotate(0, 0, 0) translate(-1, -1)" />
    <rect width="2" height="2" rx="0" ry="0" visibility="visible" fill="#9C9C9C" stroke="Black" fill-opacity="1" stroke-width="0.1" stroke-miterlimit="4" stroke-opacity="1" opacity="1" transform="translate(0.5875292, 0) rotate(0, 0, 0) translate(-1, -1)" />
    <ellipse rx="1" ry="1" visibility="visible" fill="none" stroke="Black" fill-opacity="0" stroke-width="0.1" stroke-miterlimit="4" stroke-opacity="1" opacity="1" transform="translate(-0.1517008, 0) rotate(0, 0, 0)" />
    <ellipse rx="1" ry="1" visibility="visible" fill="none" stroke="Black" fill-opacity="0" stroke-width="0.1" stroke-miterlimit="4" stroke-opacity="1" opacity="1" transform="translate(-0.4358283, 0) rotate(0, 0, 0)" />
    <ellipse rx="1" ry="1" visibility="visible" fill="none" stroke="Black" fill-opacity="0" stroke-width="0.1" stroke-miterlimit="4" stroke-opacity="1" opacity="1" transform="translate(0.5875292, 0) rotate(0, 0, 0)" />
  </g>
  <g fill="Black" visibility="visible" fill-opacity="1" stroke-width="1" stroke-miterlimit="4" stroke-opacity="1" opacity="1" transform="matrix(0.9999124, -0.01323607, 0.01323607, 0.9999124, -1.591377, 0)">
    <rect width="2" height="2" rx="0" ry="0" visibility="visible" fill="#9C9C9C" stroke="Black" fill-opacity="1" stroke-width="0.1" stroke-miterlimit="4" stroke-opacity="1" opacity="1" transform="translate(-0.1517008, 0) rotate(0, 0, 0) translate(-1, -1)" />
    <rect width="2" height="2" rx="0" ry="0" visibility="visible" fill="#9C9C9C" stroke="Black" fill-opacity="1" stroke-width="0.1" stroke-miterlimit="4" stroke-opacity="1" opacity="1" transform="translate(-0.4358283, 0) rotate(0, 0, 0) translate(-1, -1)" />
    <rect width="2" height="2" rx="0" ry="0" visibility="visible" fill="#9C9C9C" stroke="Black" fill-opacity="1" stroke-width="0.1" stroke-miterlimit="4" stroke-opacity="1" opacity="1" transform="translate(0.5875292, 0) rotate(0, 0, 0) translate(-1, -1)" />
    <ellipse rx="1" ry="1" visibility="visible" fill="none" stroke="Black" fill-opacity="0" stroke-width="0.1" stroke-miterlimit="4" stroke-opacity="1" opacity="1" transform="translate(-0.1517008, 0) rotate(0, 0, 0)" />
    <ellipse rx="1" ry="1" visibility="visible" fill="none" stroke="Black" fill-opacity="0" stroke-width="0.1" stroke-miterlimit="4" stroke-opacity="1" opacity="1" transform="translate(-0.4358283, 0) rotate(0, 0, 0)" />
    <ellipse rx="1" ry="1" visibility="visible" fill="none" stroke="Black" fill-opacity="0" stroke-width="0.1" stroke-miterlimit="4" stroke-opacity="1" opacity="1" transform="translate(0.5875292, 0) rotate(0, 0, 0)" />
  </g>
  <g fill="Black" visibility="visible" fill-opacity="1" stroke-width="1" stroke-miterlimit="4" stroke-opacity="1" opacity="1" transform="matrix(0.7032985, -0.7108946, 0.7108946, 0.7032985, 4.129948, 0)">
    <rect width="2" height="2" rx="0" ry="0" visibility="visible" fill="#9C9C9C" stroke="Black" fill-opacity="1" stroke-width="0.1" stroke-miterlimit="4" stroke-opacity="1" opacity="1" transform="translate(-0.1517008, 0) rotate(0, 0, 0) translate(-1, -1)" />
    <rect width="2" height="2" rx="0" ry="0" visibility="visible" fill="#9C9C9C" stroke="Black" fill-opacity="1" stroke-width="0.1" stroke-miterlimit="4" stroke-opacity="1" opacity="1" transform="translate(-0.4358283, 0) rotate(0, 0, 0) translate(-1, -1)" />
    <rect width="2" height="2" rx="0" ry="0" visibility="visible" fill="#9C9C9C" stroke="Black" fill-opacity="1" stroke-width="0.1" stroke-miterlimit="4" stroke-opacity="1" opacity="1" transform="translate(0.5875292, 0) rotate(0, 0, 0) translate(-1, -1)" />
    <ellipse rx="1" ry="1" visibility="visible" fill="none" stroke="Black" fill-opacity="0" stroke-width="0.1" stroke-miterlimit="4" stroke-opacity="1" opacity="1" transform="translate(-0.1517008, 0) rotate(0, 0, 0)" />
    <ellipse rx="1" ry="1" visibility="visible" fill="none" stroke="Black" fill-opacity="0" stroke-width="0.1" stroke-miterlimit="4" stroke-opacity="1" opacity="1" transform="translate(-0.4358283, 0) rotate(0, 0, 0)" />
    <ellipse rx="1" ry="1" visibility="visible" fill="none" stroke="Black" fill-opacity="0" stroke-width="0.1" stroke-miterlimit="4" stroke-opacity="1" opacity="1" transform="translate(0.5875292, 0) rotate(0, 0, 0)" />
  </g>
  <g fill="Black" visibility="visible" fill-opacity="1" stroke-width="1" stroke-miterlimit="4" stroke-opacity="1" opacity="1" transform="matrix(0.6992131, 0.7149132, -0.7149132, 0.6992131, -10.709, 0)">
    <rect width="2" height="2" rx="0" ry="0" visibility="visible" fill="#9C9C9C" stroke="Black" fill-opacity="1" stroke-width="0.1" stroke-miterlimit="4" stroke-opacity="1" opacity="1" transform="translate(-0.1517008, 0) rotate(0, 0, 0) translate(-1, -1)" />
    <rect width="2" height="2" rx="0" ry="0" visibility="visible" fill="#9C9C9C" stroke="Black" fill-opacity="1" stroke-width="0.1" stroke-miterlimit="4" stroke-opacity="1" opacity="1" transform="translate(-0.4358283, 0) rotate(0, 0, 0) translate(-1, -1)" />
    <rect width="2" height="2" rx="0" ry="0" visibility="visible" fill="#9C9C9C" stroke="Black" fill-opacity="1" stroke-width="0.1" stroke-miterlimit="4" stroke-opacity="1" opacity="1" transform="translate(0.5875292, 0) rotate(0, 0, 0) translate(-1, -1)" />
    <ellipse rx="1" ry="1" visibility="visible" fill="none" stroke="Black" fill-opacity="0" stroke-width="0.1" stroke-miterlimit="4" stroke-opacity="1" opacity="1" transform="translate(-0.1517008, 0) rotate(0, 0, 0)" />
    <ellipse rx="1" ry="1" visibility="visible" fill="none" stroke="Black" fill-opacity="0" stroke-width="0.1" stroke-miterlimit="4" stroke-opacity="1" opacity="1" transform="translate(-0.4358283, 0) rotate(0, 0, 0)" />
    <ellipse rx="1" ry="1" visibility="visible" fill="none" stroke="Black" fill-opacity="0" stroke-width="0.1" stroke-miterlimit="4" stroke-opacity="1" opacity="1" transform="translate(0.5875292, 0) rotate(0, 0, 0)" />
  </g>
</svg>