<?xml version="1.0" encoding="utf-8"?>
<!-- Generator: Adobe Illustrator 14.0.0, SVG Export Plug-In . SVG Version: 6.00 Build 43363)  -->
<!DOCTYPE svg PUBLIC "-//W3C//DTD SVG 1.1//EN" "http://www.w3.org/Graphics/SVG/1.1/DTD/svg11.dtd">
<svg version="1.1"
	 id="svg2923" xmlns:dc="http://purl.org/dc/elements/1.1/" sodipodi:docname="vvvv_logo.svg" xmlns:svg="http://www.w3.org/2000/svg" xmlns:rdf="http://www.w3.org/1999/02/22-rdf-syntax-ns#" inkscape:version="0.47 " xmlns:sodipodi="http://sodipodi.sourceforge.net/DTD/sodipodi-0.dtd" xmlns:inkscape="http://www.inkscape.org/namespaces/inkscape" xmlns:cc="http://creativecommons.org/ns#"
	 xmlns="http://www.w3.org/2000/svg" xmlns:xlink="http://www.w3.org/1999/xlink" x="0px" y="0px" width="366.1px"
	 height="189.82px" viewBox="0 0 366.1 189.82" enable-background="new 0 0 366.1 189.82" xml:space="preserve">
<defs>
	
	
		<inkscape:perspective  id="perspective2929" inkscape:vp_y="0 : 1000 : 0" sodipodi:type="inkscape:persp3d" inkscape:vp_x="0 : 526.18109 : 1" inkscape:persp3d-origin="372.04724 : 350.78739 : 1" inkscape:vp_z="744.09448 : 526.18109 : 1">
		</inkscape:perspective>
	
		<inkscape:perspective  id="perspective2893" inkscape:vp_y="0 : 1000 : 0" sodipodi:type="inkscape:persp3d" inkscape:vp_x="0 : 0.5 : 1" inkscape:persp3d-origin="0.5 : 0.33333333 : 1" inkscape:vp_z="1 : 0.5 : 1">
		</inkscape:perspective>
	
		<inkscape:perspective  id="perspective2847" inkscape:vp_y="0 : 1000 : 0" sodipodi:type="inkscape:persp3d" inkscape:vp_x="0 : 0.5 : 1" inkscape:persp3d-origin="0.5 : 0.33333333 : 1" inkscape:vp_z="1 : 0.5 : 1">
		</inkscape:perspective>
</defs>
<sodipodi:namedview  id="base" inkscape:window-maximized="1" inkscape:window-y="-4" inkscape:pageopacity="0.0" inkscape:pageshadow="2" inkscape:cy="200.95074" showgrid="false" borderopacity="1.0" pagecolor="#ffffff" inkscape:zoom="2" inkscape:document-units="mm" bordercolor="#666666" inkscape:window-width="1920" inkscape:window-height="1174" inkscape:cx="193.98192" inkscape:current-layer="layer1" inkscape:window-x="-4">
	</sodipodi:namedview>
<rect id="rect2981_1_" x="0" y="0" width="366.101" height="150.895"/>
<rect id="rect2981-7_1_" x="0" y="167.035" width="366.101" height="23.004"/>
<path id="path2937_1_" fill="#FFFFFF" d="M17.059,173.949v3.2h3.198v-3.2H17.059z M23.458,186.747h-3.201v-6.396h-3.198v6.396
	h-3.201v-15.999h9.6V186.747z"/>
<path id="path2939_1_" fill="#FFFFFF" d="M45.858,170.748h16v15.999h-3.199v-12.798h-3.201v12.798h-3.2v-12.798h-3.2v12.798h-3.201
	V170.748z"/>
<path id="path2941_1_" fill="#FFFFFF" d="M68.233,186.747v-15.999h3.201v12.801h3.198v-12.801h3.201v15.999H68.233z"/>
<path id="path2943_1_" fill="#FFFFFF" d="M93.833,183.549v3.198h-9.6v-15.999h3.201v12.801H93.833z"/>
<path id="path2945_1_" fill="#FFFFFF" d="M106.634,186.747h-3.201v-12.798h-3.198v-3.201h9.598v3.201h-3.199V186.747z"/>
<path id="path2947_1_" fill="#FFFFFF" d="M119.433,170.748v15.999h-3.198v-15.999H119.433z"/>
<path id="path2949_1_" fill="#FFFFFF" d="M129.061,186.747h-3.201v-15.999h9.599v9.603h-6.398V186.747z M132.259,177.149v-3.2
	h-3.198v3.2H132.259z"/>
<path id="path2951_1_" fill="#FFFFFF" d="M141.859,186.747v-15.999h3.2v12.801h3.2v-12.801h3.202v15.999H141.859z"/>
<path id="path2953_1_" fill="#FFFFFF" d="M164.258,177.149v-3.2h-3.198v3.2H164.258z M167.459,180.35v6.396h-3.201v-6.396h-3.198
	v6.396h-3.2v-15.999h9.599v3.201v3.2h-3.201v3.201H167.459z"/>
<path id="path2955_1_" fill="#FFFFFF" d="M177.06,186.747h-3.2v-15.999h9.599v9.603h-6.399V186.747z M180.258,177.149v-3.2h-3.198
	v3.2H180.258z"/>
<path id="path2957_1_" fill="#FFFFFF" d="M193.062,173.949v9.6h3.196v-9.6H193.062z M199.459,186.747h-9.6v-15.999h9.6V186.747z"/>
<path id="path2959_1_" fill="#FFFFFF" d="M205.86,186.747v-3.198h6.396v-3.198h-6.396v-9.603h9.598v3.201h-6.396v3.2h6.396v9.598
	H205.86z"/>
<path id="path2961_1_" fill="#FFFFFF" d="M231.459,177.149v3.201h-6.398v3.198h6.398v3.198h-9.6v-15.999h9.6v3.201h-6.398v3.2
	H231.459z"/>
<path id="path2963_1_" fill="#FFFFFF" d="M260.261,186.747h-3.201v-12.798h-3.201v-3.201h9.603v3.201h-3.2V186.747z"/>
<path id="path2965_1_" fill="#FFFFFF" d="M273.061,173.949v9.6h3.201v-9.6H273.061z M279.461,186.747h-9.6v-15.999h9.6V186.747z"/>
<path id="path2967_1_" fill="#FFFFFF" d="M289.06,173.949v9.6h3.201v-9.6H289.06z M295.46,186.747h-9.6v-15.999h9.6V186.747z"/>
<path id="path2969_1_" fill="#FFFFFF" d="M311.46,183.549v3.198h-9.601v-15.999h3.203v12.801H311.46z"/>
<path id="path2971_1_" fill="#FFFFFF" d="M324.262,177.149v-6.401h3.196v6.401H324.262v3.201h3.196v6.396h-3.196v-6.396h-3.2v6.396
	h-3.201v-15.999h3.201v6.401H324.262z"/>
<path id="path2973_1_" fill="#FFFFFF" d="M337.061,170.748v15.999h-3.201v-15.999H337.061z"/>
<path id="path2975_1_" fill="#FFFFFF" d="M349.885,186.747h-3.196v-12.798h-3.2v-3.201h9.597v3.201h-3.2V186.747z"/>
<g>
	<path id="path2883_1_" fill="#FFFFFF" d="M26.243,70.191c0,6.369,0.578,12.894,1.733,19.578c0.721,6.836,1.153,15.499,1.299,25.984
		c-0.289,1.634-0.435,3.534-0.435,5.708c0,1.943,0.541,2.915,1.625,2.915c0.288,0,2.055-1.827,5.305-5.478
		c3.103-3.649,9.884-10.563,20.347-20.742c0.939-0.856,3.319-3.107,7.144-6.757c3.681-3.654,7.794-8.003,12.34-13.052
		c4.617-5.127,8.694-10.644,12.23-16.548c3.247-5.67,4.942-11.07,5.087-16.196c0.288-12.741-3.68-19.111-11.907-19.111
		c-1.804,0-3.428,0.816-4.872,2.447c-1.802,1.552-2.704,3.456-2.704,5.71c0,3.496,0.577,6.991,1.73,10.488
		c0.795,3.496,1.262,7.146,1.407,10.953c0,5.438-0.901,10.294-2.706,14.566c-1.731,4.271-4.077,8.351-7.035,12.236
		c-2.958,3.495-6.242,6.913-9.85,10.252c-3.535,3.342-7.144,6.679-10.823,10.024l0,0c-0.723-7.538-1.769-14.957-3.14-22.26
		c-1.441-7.145-2.165-14.448-2.165-21.907c0-6.214,0.65-11.223,1.949-15.03c1.227-3.807,2.562-6.606,4.004-8.392
		c3.537-3.65,5.484-5.942,5.845-6.875c0-1.009-0.542-1.591-1.625-1.747c-3.535,0.155-8.334,4.233-14.395,12.233
		c-2.816,3.809-5.16,8.275-7.035,13.404C27.362,57.801,26.243,63.666,26.243,70.191L26.243,70.191z"/>
	<path id="path2885_1_" fill="#FFFFFF" d="M108.503,70.191c0,6.369,0.578,12.894,1.733,19.578
		c0.721,6.836,1.153,15.499,1.297,25.984c-0.288,1.634-0.432,3.534-0.432,5.708c0,1.943,0.54,2.915,1.623,2.915
		c0.289,0,2.057-1.827,5.304-5.478c3.102-3.649,9.885-10.563,20.349-20.742c0.937-0.856,3.32-3.107,7.142-6.757
		c3.683-3.654,7.793-8.003,12.341-13.052c4.618-5.127,8.694-10.644,12.23-16.548c3.246-5.67,4.942-11.07,5.085-16.196
		c0.293-12.741-3.678-19.111-11.904-19.111c-1.804,0-3.427,0.816-4.871,2.447c-1.804,1.552-2.705,3.456-2.705,5.71
		c0,3.496,0.577,6.991,1.732,10.488c0.792,3.496,1.261,7.146,1.405,10.953c0,5.438-0.9,10.294-2.704,14.566
		c-1.732,4.271-4.077,8.351-7.038,12.236c-2.958,3.495-6.241,6.913-9.85,10.252c-3.534,3.342-7.141,6.679-10.821,10.024l0,0
		c-0.723-7.538-1.769-14.957-3.139-22.26c-1.442-7.145-2.166-14.448-2.166-21.907c0-6.214,0.65-11.223,1.949-15.03
		c1.227-3.807,2.561-6.606,4.006-8.392c3.535-3.65,5.483-5.942,5.842-6.875c0-1.009-0.54-1.591-1.621-1.747
		c-3.535,0.155-8.336,4.233-14.397,12.233c-2.813,3.809-5.158,8.275-7.037,13.404C109.623,57.801,108.503,63.666,108.503,70.191
		L108.503,70.191z"/>
	<path id="path2887_1_" fill="#FFFFFF" d="M190.762,70.191c0,6.369,0.578,12.894,1.734,19.578c0.72,6.836,1.151,15.499,1.298,25.984
		c-0.29,1.634-0.435,3.534-0.435,5.708c0,1.943,0.543,2.915,1.626,2.915c0.288,0,2.055-1.827,5.304-5.478
		c3.104-3.649,9.885-10.563,20.348-20.742c0.939-0.856,3.319-3.107,7.144-6.757c3.678-3.654,7.79-8.003,12.337-13.052
		c4.619-5.127,8.695-10.644,12.229-16.548c3.251-5.67,4.945-11.07,5.089-16.196c0.29-12.741-3.678-19.111-11.907-19.111
		c-1.802,0-3.425,0.816-4.869,2.447c-1.805,1.552-2.703,3.456-2.703,5.71c0,3.496,0.578,6.991,1.731,10.488
		c0.793,3.496,1.26,7.146,1.406,10.953c0,5.438-0.904,10.294-2.706,14.566c-1.731,4.271-4.079,8.351-7.035,12.236
		c-2.961,3.495-6.245,6.913-9.85,10.252c-3.539,3.342-7.144,6.679-10.824,10.024l0,0c-0.722-7.538-1.767-14.957-3.138-22.26
		c-1.446-7.145-2.166-14.448-2.166-21.907c0-6.214,0.646-11.223,1.946-15.03c1.227-3.807,2.564-6.606,4.006-8.392
		c3.539-3.65,5.485-5.942,5.844-6.875c0-1.009-0.54-1.591-1.62-1.747c-3.539,0.155-8.338,4.233-14.396,12.233
		c-2.814,3.809-5.159,8.275-7.037,13.404C191.882,57.801,190.762,63.666,190.762,70.191L190.762,70.191z"/>
	<path id="path2889_1_" fill="#FFFFFF" d="M273.024,70.191c0,6.369,0.578,12.894,1.731,19.578c0.722,6.836,1.153,15.499,1.3,25.984
		c-0.293,1.634-0.434,3.534-0.434,5.708c0,1.943,0.542,2.915,1.623,2.915c0.29,0,2.057-1.827,5.303-5.478
		c3.103-3.649,9.886-10.563,20.349-20.742c0.938-0.856,3.316-3.107,7.145-6.757c3.681-3.654,7.79-8.003,12.339-13.052
		c4.619-5.127,8.693-10.644,12.228-16.548c3.251-5.67,4.947-11.07,5.089-16.196c0.288-12.741-3.681-19.111-11.904-19.111
		c-1.808,0-3.428,0.816-4.872,2.447c-1.802,1.552-2.706,3.456-2.706,5.71c0,3.496,0.581,6.991,1.731,10.488
		c0.793,3.496,1.263,7.146,1.409,10.953c0,5.438-0.904,10.294-2.706,14.566c-1.731,4.271-4.079,8.351-7.038,12.236
		c-2.958,3.495-6.241,6.913-9.849,10.252c-3.536,3.342-7.141,6.679-10.821,10.024l0,0c-0.722-7.538-1.77-14.957-3.138-22.26
		c-1.446-7.145-2.168-14.448-2.168-21.907c0-6.214,0.648-11.223,1.948-15.03c1.228-3.807,2.562-6.606,4.004-8.392
		c3.536-3.65,5.487-5.942,5.846-6.875c0-1.009-0.54-1.591-1.623-1.747c-3.539,0.155-8.335,4.233-14.396,12.233
		c-2.814,3.809-5.159,8.275-7.038,13.404C274.144,57.801,273.024,63.666,273.024,70.191L273.024,70.191z"/>
</g>
</svg>
